<?xml version="1.0" standalone="no"?>
<!DOCTYPE svg PUBLIC "-//W3C//DTD SVG 1.1//EN" "http://www.w3.org/Graphics/SVG/1.1/DTD/svg11.dtd" >
<!--
2013-9-30: Created.
-->
<svg>
<metadata>
Created by iconfont
</metadata>
<defs>

<font id="new-iconfont" horiz-adv-x="1024" >
  <font-face
    font-family="new-iconfont"
    font-weight="500"
    font-stretch="normal"
    units-per-em="1024"
    ascent="896"
    descent="-128"
  />
    <missing-glyph />
    
    <glyph glyph-name="next-y" unicode="&#58883;" d="M436.09314 375.971776L27.135398-21.666169999999966 124.999451-101.90827100000001 601.675265 379.745041 96.137985 853.891964 14.611368 763.574441ZM858.417875 375.971776L449.460133-21.666169999999966 547.284045-101.90827100000001 1024 379.745041 518.462721 853.891964 436.895962 763.574441Z"  horiz-adv-x="1024" />

    
    <glyph glyph-name="zhengque" unicode="&#59175;" d="M896.70144 788.48L343.71584 124.34943999999996 119.48416 407.20384 0 327.76576 342.1888-14.42175999999995 1026.56384 669.95456Z"  horiz-adv-x="1027" />

    
    <glyph glyph-name="bianji" unicode="&#58892;" d="M803.26087111 149.24231110999995c0-89.72743111-72.79729778-162.52586667-162.52472889-162.52586666H171.21848889c-89.72743111 0-162.52472889 72.79843555-162.52472889 162.52586666V618.75768889c0 89.72743111 72.79729778 162.52586667 162.52472889 162.52586666h469.51765333c22.57351111 0 45.14588445-4.51584 66.02524445-14.10844444 5.07904-2.25735111 9.02940445-7.33639111 10.15808-12.97976889 1.12867555-6.20771555-0.56433778-11.84995555-5.07904-16.36465777l-27.65141334-27.65255112c-5.07904-5.07790222-11.85109333-6.77091555-18.05880888-4.51470222-8.46506667 2.25735111-16.93013333 3.38602667-25.39406223 3.38602667H171.21848889c-49.66058667 0-90.29176889-40.63232-90.29176889-90.29290667v-469.51651556c0-49.66058667 40.63118222-90.29176889 90.29176889-90.29176888h469.51765333c49.66058667 0 90.29063111 40.63232 90.29063111 90.29176888v71.10428445c0 4.51470222 1.69301333 9.02940445 5.07904 12.41543111l36.11648 36.11648c5.64337778 5.64337778 12.97976889 6.77091555 19.75182222 3.95036444 6.76977778-2.82168889 11.28675555-9.02940445 11.28675556-16.36579555v-107.21848889z m108.35057778 361.16593778L532.38442667 131.18350222000004H369.86083555V293.70936888999995l379.22474667 379.22474666L911.61031111 510.40711111zM575.27409778 250.81969777999996l-85.77706667 85.77706667-65.46204444-65.46090667v-31.60291556h54.17528888v-54.17415111h31.60177778l65.46204445 65.46090667z m164.21774222 340.28657777L541.97930667 393.59488c-5.07904-5.07904-5.64337778-13.54410667-0.56433778-18.62314667 5.07790222-5.07790222 13.54410667-4.51470222 18.62314666 0.56547556l197.51253334 197.51253333c5.07904 5.07904 5.64337778 13.54410667 0.56547556 18.62314667-5.08017778 5.07904-13.54524445 4.51356445-18.62314667-0.56433778z m208.23608889-44.58154666L785.2032 709.0517333299999l51.91793778 51.9168c20.88049778 20.88163555 55.86716445 20.88163555 76.74766222 0l85.77706667-85.77706666c20.88049778-20.87936 20.88049778-55.86602667 0-76.74652445l-51.9168-51.91907555z"  horiz-adv-x="1024" />

    
    <glyph glyph-name="wangzhan" unicode="&#58947;" d="M973.64992 811.55072H59.8272c-32.39936 0-58.32704-19.584-58.32704-52.224v-587.4688c0-26.10688 25.92256-52.21376 51.85024-52.21376h366.33088l-9.8816-104.44288H338.5088c-25.92256 0-45.36832-32.63488-45.36832-58.74688h434.23232c6.48192 19.584-12.95872 58.74688-38.89152 58.74688h-71.29088l-9.87136 104.44288h366.33088c25.92256 0 51.85024 26.112 51.85024 52.21376V759.32672c0 32.64-25.92768 52.224-51.85024 52.224zM967.168 269.76768H66.30912V752.80384H967.168v-483.03616zM312.59136 583.0912c15.26784 0 30.44352 6.32832 41.24672 17.20832 10.79296 10.86976 17.08032 26.15296 17.08032 41.53344 0 15.3856-6.28736 30.6688-17.08032 41.54368-10.79808 10.86976-25.97376 17.2032-41.24672 17.2032-15.27296 0-30.44864-6.33344-41.25184-17.2032-10.79808-10.88-17.08544-26.15808-17.08544-41.54368 0-15.38048 6.28736-30.66368 17.08544-41.53344 10.79808-10.88 25.97376-17.20832 41.25184-17.20832z m479.5904-78.336h-246.28224v-169.71264h246.28224V504.7552z m0 169.71776h-246.28224v-19.584h246.28224v19.584z m0-39.16288h-246.28224v-19.584h246.28224v19.584zM487.57248 504.7552H241.29536v-19.57888H487.5776v19.57888z m0-39.15776H241.29536v-19.57888H487.5776v19.57888z m0-32.64H241.29536v-19.57888H487.5776v19.57888z m0-39.16288H241.29536v-19.584H487.5776v19.584z m0-39.16288H241.29536v-19.58912H487.5776v19.58912z"  horiz-adv-x="1027" />

    
    <glyph glyph-name="prev-y" unicode="&#58880;" d="M587.907 392.028l408.958 397.639-97.864 80.242-476.676-481.653 505.537-474.147 81.527 90.318zM165.582 392.028l408.958 397.639-97.824 80.242-476.716-481.653 505.537-474.147 81.567 90.318z"  horiz-adv-x="1024" />

    
    <glyph glyph-name="jiaoseguanli2" unicode="&#58931;" d="M430.287279 895.254503c95.126675 0 192.250343-80.791724 223.993235-186.259364 28.056904-93.233681-6.143979-186.670362-93.385681-255.481127-77.412735-61.079791-161.378448-66.199774-248.057152-15.103948-161.940446 95.229675-157.230463 321.218902 10.290965 423.104554 31.639892 19.045935 65.687775 29.439899 107.158633 33.739885 1.176996-2.713991-1.023997 2.610991 0 0zM72.511502-2.9214279999999917c-1.022997 0.103-1.995993 0.307999-2.86699 0.409999-74.237746 15.922946-77.667735 21.349927-54.935812 91.542687 15.308948 47.409838 29.899898 94.973675 46.79584 141.819515 26.724909 74.545745 83.862713 113.097613 159.943453 116.989601 88.676697 4.606984 177.812392 1.842994 266.642089 1.023996 30.616895-0.307999 35.839878-10.905963 22.885921-38.910867-3.224989-7.014976-7.013976-13.977952-11.109962-20.58193-51.966822-83.556714-68.810765-172.53941-44.798846-269.202079 9.880966-39.678864 2.149993-47.102839-38.449869-47.972836-20.47993-0.460998-41.112859-0.153999-61.54079-0.154 0 0-195.476332 15.000949-282.565034 25.035914z m425.152547 187.233361c15.154948 3.839987 30.002897 8.293972 45.157846 11.416961 23.755919 5.068983 26.878908 16.741943 12.491957 34.96888-9.215969 11.467961-18.738936 22.475923-30.411896 35.992877 12.184958 16.485944 24.728915 33.483886 37.374872 50.481827 12.082959 16.485944 24.011918 32.971887 37.579872 51.504824 15.922946-11.77496 30.359896-22.987921 45.207845-33.739884 23.039921-16.536943 38.654868-12.542957 50.174829 13.977952 6.143979 14.232951 9.727967 29.489899 15.359947 46.79484 29.438899 0 59.645796 1.279996 89.648694-1.023997 6.757977-0.562998 15.359948-12.696957 18.328937-21.144927 22.731922-62.512786 25.291914-63.383783 78.538732-21.912925 6.859977 5.324982 13.976952 10.188965 22.833922 16.485943 25.189914-33.739885 49.406831-66.403773 77.412735-103.881645-10.751963-8.600971-21.605926-15.409947-30.463896-24.369916-25.035914-24.831915-21.912925-35.992877 11.570961-44.747847 14.028952-3.737987 28.209904-7.167976 43.109852-10.853963v-101.014655c-16.588943-4.709984-32.613889-8.293972-47.973836-13.874953-26.878908-9.727967-30.001897-25.854912-9.266968-44.747847 9.266968-8.447971 19.250934-16.178945 28.619902-23.909918-33.943884-32.612889-66.864771-64.40678-102.601649-98.709663-7.013976 6.296978-18.123938 16.587943-29.745899 26.46991-21.298927 18.122938-39.883864 11.159962-44.900846-16.742943-1.126996-6.706977-1.996993-13.618953-3.02099-20.273931-0.869997-5.683981-1.586995-11.62296-2.76499-19.455933H709.216326c-3.173989 14.386951-5.73398 29.745898-9.726967 44.491848-5.682981 21.451927-18.533937 29.3369-39.320865 17.40694-18.635936-10.699963-36.964874-22.065925-58.263801-34.763881a255046.998257 255046.998257 0 0 0-78.384732 101.322654c10.750963 9.317968 20.58193 17.201941 29.745898 25.751912 21.605926 20.325931 18.584936 33.739885-9.983966 43.92885-14.59095 5.170982-29.745898 8.75497-45.770843 13.259954V184.31193299999995h0.152999z m392.385659-48.791834c-0.459998 73.418749-59.543796 132.142548-132.348548 131.426551-73.11075-0.563998-131.067552-59.799796-130.658553-133.321544 0.614998-73.26475 59.389797-131.272551 132.809546-131.016552 73.674748 0.459998 130.607554 58.5708 130.197555 132.911545z m0 0"  horiz-adv-x="1024" />

    
    <glyph glyph-name="prev-m" unicode="&#58881;" d="M391.991 392.463l383.436 372.786-91.747 75.264-446.921-451.587 473.978-444.55 76.432 84.673z"  horiz-adv-x="1024" />

    
    <glyph glyph-name="exit" unicode="&#58942;" d="M1016.9 402.8l-202 201.9c-9.9 9.9-25.9 9.9-35.9 0l-40.8-40.8c-9.9-9.9-9.9-25.9 0-35.9l89.1-89.1h-406c-14 0-25.3-11.4-25.3-25.3v-57.7c0-14 11.4-25.3 25.3-25.3h405.8L738 241.5c-9.9-9.9-9.9-26 0-35.9l40.8-40.8c9.9-9.9 26-9.9 35.9 0L976 326.1l40.8 40.8c10 9.9 10 26 0.1 35.9zM622.4 873.1h-546c-42 0-76.1-34-76.1-76v-824.6c0-42 34-76 76.1-76h546c42 0 76 34 76 76v107c0 14-11.3 25.4-25.3 25.4h-54.9c-14 0-25.3-11.3-25.3-25.4v-40.7c-0.3-20.8-17.2-37.5-38-37.5h-412c-21 0-38 17-38 38V731.1c0 21 17 38 38 38h411.9c20.8 0 37.7-16.7 38-37.5v-41.9c0-14 11.3-25.3 25.3-25.3H673c14 0 25.3 11.3 25.3 25.3V797.1c0.1 42-33.9 76-75.9 76z"  horiz-adv-x="1024" />

    
    <glyph glyph-name="wenhao1" unicode="&#58949;" d="M979.456 581.489c-25.554 60.416-62.131 114.673-108.713 161.254s-100.838 83.159-161.254 108.713c-62.566 26.465-129.009 39.885-197.489 39.885s-134.922-13.42-197.489-39.885c-60.416-25.554-114.673-62.131-161.254-108.713s-83.159-100.838-108.713-161.254c-26.465-62.566-39.885-129.009-39.885-197.489s13.42-134.922 39.88-197.489c25.554-60.416 62.131-114.673 108.713-161.254 46.587-46.582 100.838-83.159 161.254-108.713 62.566-26.465 129.014-39.885 197.489-39.885s134.922 13.42 197.489 39.885c60.416 25.554 114.673 62.131 161.254 108.713 46.582 46.582 83.159 100.838 108.713 161.254 26.465 62.566 39.88 129.014 39.88 197.489 0.010 68.48-13.409 134.922-39.875 197.489zM922.911 210.427c-22.461-53.1-54.62-100.792-95.58-141.757-40.965-40.965-88.658-73.124-141.757-95.58-54.958-23.245-113.357-35.031-173.573-35.031s-118.615 11.786-173.573 35.031c-53.1 22.461-100.792 54.62-141.757 95.58-40.965 40.965-73.124 88.658-95.58 141.757-23.245 54.958-35.031 113.357-35.031 173.573s11.786 118.615 35.031 173.573c22.461 53.1 54.615 100.792 95.58 141.757s88.658 73.124 141.757 95.58c54.958 23.245 113.357 35.031 173.573 35.031s118.615-11.786 173.573-35.031c53.1-22.456 100.792-54.615 141.757-95.58 40.965-40.965 73.124-88.658 95.58-141.757 23.245-54.958 35.031-113.357 35.031-173.573 0-60.216-11.786-118.615-35.031-173.573zM512 675.277c-101.54 0-184.151-77.174-184.151-172.027 0-18.289 15.872-33.116 35.451-33.116s35.451 14.828 35.451 33.116c0 58.332 50.801 105.789 113.249 105.789s113.244-47.457 113.244-105.789c0-34.77-16.707-47.8-51.451-71.706-41.042-28.232-97.244-66.888-97.244-167.434 0-18.289 15.872-33.116 35.451-33.116s35.451 14.828 35.451 33.116c0 67.062 30.177 87.818 68.388 114.094 35.779 24.612 80.312 55.25 80.312 125.046 0 94.848-82.611 172.027-184.151 172.027zM462.776 154.551c0 0 0 0 0 0 0-27.186 22.039-49.224 49.224-49.224 27.186 0 49.224 22.039 49.224 49.224 0 0 0 0 0 0 0 27.186-22.039 49.224-49.224 49.224-27.186 0-49.224-22.039-49.224-49.224z"  horiz-adv-x="1024" />

    
    <glyph glyph-name="next-m" unicode="&#58882;" d="M632.009 375.53700000000003l-383.436-372.786 91.747-75.264 446.921 451.587-473.978 444.55-76.432-84.673z"  horiz-adv-x="1024" />

    
    <glyph glyph-name="help" unicode="&#58884;" d="M511.937 896c-282.798 0-511.937-229.14-511.937-511.937s229.14-511.937 511.937-511.937 511.937 229.14 511.937 511.937-229.14 511.937-511.937 511.937zM568.847 42.729h-113.819v113.819h113.819v-113.819zM698.426 413.831c-55.659-84.927-128.453-97.309-128.453-200.247h-115.571v33.646c-2.126 65.040 28.142 117.822 87.428 158.096 61.412 44.902 81.8 57.66 81.8 120.323 0 68.042-66.541 86.678-112.569 86.678-76.922 0-112.944-59.161-112.944-114.945l-113.319 0.375c0 163.475 125.076 227.139 253.655 227.139 120.699 0 200.873-90.055 200.998-174.857 0.125-53.908-11.007-92.306-41.025-136.208z"  horiz-adv-x="1024" />

    
    <glyph glyph-name="bianji1" unicode="&#58972;" d="M860.684102 98.688241c0-50.823706-40.693885-92.01731-90.89746-92.01731H224.441016c-50.206585 0-90.90047 41.196613-90.90047 92.01731V650.758984c0 50.823706 40.696896 92.02032 90.90047 92.02032H588.015804l90.89445 92.02634H194.141863c-83.678645 0.00301-151.471684-68.663029-151.471684-153.389275v-613.403575c0-84.711195 67.793039-153.34111 151.468673-153.34111h605.974036c83.606397 0 151.465663 68.626905 151.465663 153.34111V558.756726l-90.894449-92.02634v-368.042145zM359.686924 227.841204l203.448354 58.451929-145.300471 146.209595-58.147883-204.661524zM903.012606 628.319849l-145.267357 146.194544L438.043274 452.876764l145.30047-146.15842L903.012606 628.319849z m67.558231 122.816181l-90.837253 91.367074c-15.024647 15.130009-40.248354 14.305174-56.30254-1.827281l-43.595861-43.860771 145.300471-146.191534 43.628974 43.872813c16.018062 16.147507 16.836877 41.491627 1.806209 56.639699z"  horiz-adv-x="1024" />

    
    <glyph glyph-name="tuichu" unicode="&#58992;" d="M443.917838 896H579.528649v-546.871351H443.917838zM778.793514 751.532973l-88.562163-101.292973c101.292973-60.886486 169.375135-171.589189 169.375135-298.343784 0-191.515676-156.090811-347.606486-347.606486-347.606486C320.484324 4.843243 164.393514 160.934054 164.393514 352.44973 164.393514 480.864865 234.68973 593.228108 338.196757 653.007568L251.848649 755.961081C119.558919 670.72 31.55027 521.824865 31.55027 352.44973 31.55027 87.316757 246.867027-128 512-128s480.44973 215.316757 480.44973 480.44973c-0.553514 166.054054-85.241081 312.735135-213.656216 399.083243z"  horiz-adv-x="1024" />

    
    <glyph glyph-name="qiantai" unicode="&#58912;" d="M1216 59.52v704A131.2 131.2 0 0 1 1084.8 896H195.2A131.2 131.2 0 0 1 64 764.8v-707.84a100.48 100.48 0 0 1-64-93.44A91.52 91.52 0 0 1 91.52-128h1096.96A91.52 91.52 0 0 1 1280-36.48v8.96a91.52 91.52 0 0 1-64 87.04zM832 0H448v64h384z m256 192H192V704a64 64 0 0 0 64 64h768a64 64 0 0 0 64-64z"  horiz-adv-x="1280" />

    
    <glyph glyph-name="shangxia1" unicode="&#58894;" d="M728.177778 264.53333299999997l-193.422222-210.488889c-5.688889-5.688889-17.066667-11.377778-22.755556-11.377777-11.377778 0-17.066667 5.688889-22.755556 11.377777l-193.422222 210.488889c-11.377778 11.377778-11.377778 28.444444-11.377778 39.822223 5.688889 11.377778 17.066667 22.755556 34.133334 22.755555h386.844444c11.377778 0 28.444444-11.377778 28.444445-22.755555 5.688889-11.377778 5.688889-28.444444-5.688889-39.822223z m0 238.933334c11.377778-11.377778 11.377778-22.755556 5.688889-39.822223 0-11.377778-17.066667-22.755556-28.444445-22.755555H318.577778c-17.066667 0-28.444444 11.377778-34.133334 22.755555s0 28.444444 5.688889 39.822223l193.422223 210.488889c11.377778 5.688889 17.066667 11.377778 28.444444 11.377777s17.066667-5.688889 22.755556-11.377777l193.422222-210.488889z"  horiz-adv-x="1024" />

    
    <glyph glyph-name="guanliyuan" unicode="&#58893;" d="M512 777.75c46.93359375 0 91.0546875-18.28125 124.27734375-51.50390625 33.22265625-33.22265625 51.50390625-77.34375 51.50390625-124.27734375s-18.28125-91.0546875-51.50390625-124.27734375S558.93359375 426.1875 512 426.1875s-91.0546875 18.28125-124.27734375 51.50390625S336.21875 555.03515625 336.21875 601.96875s18.28125 91.0546875 51.50390625 124.27734375C420.9453125 759.46875 464.97851562 777.75 512 777.75m0 56.25C383.85546875 834 279.96875 730.11328125 279.96875 601.96875s103.88671875-232.03125 232.03125-232.03125 232.03125 103.88671875 232.03125 232.03125S640.14453125 834 512 834z m0-506.25h-28.56445313c-7.99804688 0-14.50195313-6.50390625-14.50195312-14.50195313-3.07617188-45.61523438-9.75585938-89.47265625-5.9765625-135.96679687 0.08789063-1.66992188 49.13085938-151.5234375 49.13085938-151.5234375V327.75h-0.08789063zM512 25.669921870000053s49.04296875 149.85351563 49.13085938 151.52343751c3.69140625 46.58203125-2.90039063 90.3515625-5.9765625 135.96679687 0 7.99804688-6.50390625 14.50195313-14.50195313 14.50195313h-28.56445312v-301.99218751h-0.08789063zM310.29101562 285.65039062000005L406.26757812-9.75H131.52148437c3.8671875 67.76367188 26.10351563 132.62695313 64.77539063 188.52539063 20.65429688 29.79492188 45.52734375 56.42578125 73.91601563 79.10156249 12.74414063 10.1953125 26.19140625 19.42382813 40.07812499 27.7734375m33.3984375 79.1015625c-157.58789063-62.40234375-268.9453125-216.12304688-268.94531249-395.85937499 0-11.77734375 0.52734375-23.37890625 1.40624999-34.89257813h407.54882813L343.68945312 364.75195312000005z m370.01953126-79.1015625c13.88671875-8.34960938 27.24609375-17.66601563 39.99023437-27.7734375 28.38867188-22.67578125 53.26171875-49.21875 73.91601563-79.1015625 38.75976563-55.98632813 60.90820313-120.76171875 64.77539062-188.52539062H617.73242188l95.97656249 295.40039063m-33.48632812 79.10156249L540.30078125-66h407.54882813c0.96679688 11.51367188 1.40625 23.11523438 1.40624999 34.89257813 0 179.73632813-111.4453125 333.45703125-269.03320312 395.85937499z"  horiz-adv-x="1024" />

    
    <glyph glyph-name="guanliyuan1" unicode="&#58954;" d="M335.127273 896L0 430.545455l651.636364-558.545455 651.636363 558.545455-335.127272 465.454545H335.127273zM130.327273 449.163636L381.672727 802.909091h539.927273l251.345455-353.745455L651.636364 2.327273 130.327273 449.163636z m763.345454 9.309091L651.636364 253.672727 409.6 458.472727l-65.163636-74.472727L651.636364 123.345455l307.2 260.654545-65.163637 74.472727z"  horiz-adv-x="1303" />

    
    <glyph glyph-name="tuichu2" unicode="&#58959;" d="M511.999634-127.999269c-282.331227 0-511.999634 229.668407-511.999634 511.999635s229.668407 511.999634 511.999634 511.999634a510.829349 510.829349 0 0 0 344.283183-133.046762 42.642255 42.642255 0 1 0-57.417102-63.122241A425.83741 425.83741 0 0 1 511.999634 810.642347 427.153981 427.153981 0 0 1 85.357653 384.000366 427.153981 427.153981 0 0 1 511.999634-42.641615a425.471696 425.471696 0 0 1 285.988367 110.079921 42.642255 42.642255 0 1 0 57.270817-63.268526A510.536778 510.536778 0 0 0 511.999634-127.999269z m373.979162 471.551664H341.35747a42.788541 42.788541 0 0 0-42.715398 42.642255c0 23.47884 19.236558 42.715398 42.715398 42.715398h544.621326l-92.964505 95.670789a42.788541 42.788541 0 0 0 0 60.269671 42.788541 42.788541 0 0 0 60.269671 0l158.207887-162.742741c8.703994-8.703994 13.165705-20.699414 12.434277-32.914262a42.788541 42.788541 0 0 0 0-5.851425 42.569112 42.569112 0 0 0-12.434277-32.987405l-158.207887-162.815883a42.788541 42.788541 0 0 0-60.269671 0 42.788541 42.788541 0 0 0 0 60.342814l92.964505 95.670789z"  horiz-adv-x="1024" />

    
    <glyph glyph-name="guanliyuan2" unicode="&#58932;" d="M453.793963-46.1141l-326.357015 4.055126c-28.166999 0-61.518107 33.339588-61.518107 61.518108v1.670435a355.434113 355.434113 0 0 0 27.77531 133.231631 372.806642 372.806642 0 0 0 72.404739 111.746375A358.844105 358.844105 0 0 0 271.647373 344.180274a321.691316 321.691316 0 0 0 126.953097 32.417969l49.894181-0.576013h0.437769c29.422705 1.946921 101.885045 9.965012 139.77513 42.394501l14.13534 10.748389 0.103683 0.080641a270.322544 270.322544 0 0 1 73.983012 90.480003 258.641016 258.641016 0 0 1 27.648587 113.336169c0.864018 68.925625-25.632545 134.279973-74.616625 184.03591A263.156952 263.156952 0 0 1 460.199219 895.308785l0.610573 0.46081-16.727395 0.207365a239.137242 239.137242 0 0 1-97.104144-19.342492 258.191727 258.191727 0 0 1-81.263807-54.905486c-49.329688-49.030162-77.128039-113.946741-78.257023-182.803245a255.910718 255.910718 0 0 1 24.515081-113.854579c16.600673-35.182828 40.747106-66.241408 71.759605-92.300202l0.322567-0.276485 8.121773-4.976746-7.349916-2.753339A440.303756 440.303756 0 0 1 80.376748 267.559126 431.755735 431.755735 0 0 1 0 21.717101v-2.776379a126.342525 126.342525 0 0 1 126.238843-126.250362l326.322454-3.997525c21.300933 0 34.318809 11.612407 34.84874 31.104661 0.241925 10.679267-2.557494 19.089046-8.329137 24.998931s-14.59615 9.089473-25.286937 9.089473zM313.039612 774.495978c36.864783 35.862522 85.042447 55.5391 135.743045 55.5391h2.154285c51.437893-0.564492 99.869002-21.542858 136.376658-59.075815s56.103592-86.401836 55.297175-137.816689-21.888465-99.938124-59.248619-136.388178c-36.634378-35.712759-84.23603-55.297175-134.372135-55.297175h-3.260229c-51.449413 0.576012-99.892043 21.554378-136.388178 59.075815s-56.092072 86.401836-55.239574 137.839729c0.495371 51.368772 21.439176 99.707719 58.937572 136.123213zM673.42743-125.949396h0.783377c22.337755 0 32.809657 11.520245 35.943164 15.863377 17.683576 17.280367 31.841957 25.966632 42.106495 25.966631h0.230404c12.027136-0.149763 35.205868-17.153645 41.323119-26.554164l0.311046-0.47233 0.391688-0.403208c10.36822-10.564064 22.752483-16.243545 35.943164-16.404829 7.246234-0.103682 12.027136-0.172804 20.436915 3.905363l64.96266 34.952423 0.656654 0.414729c17.130604 12.487945 24.399878 36.634378 16.94628 56.241835a69.916366 69.916366 0 0 0-2.983743 19.503774v0.103682a50.689077 50.689077 0 0 0 50.689077 50.689077H986.478563c16.877159 0 33.40871 15.759695 37.797923 36.092927 0.633613 2.419251 7.649443 29.952636 7.972009 54.675082v1.152025l-0.391688 1.025302c-6.739343 17.476211-9.723087 45.412805-9.700046 47.993339v1.38243l-0.276486 0.541451c-4.101207 20.24107-20.25259 36.162048-37.15279 36.380933h-3.559755a50.758199 50.758199 0 0 0-50.689077 50.689078v1.44003c0 3.456073 1.267227 8.548022 2.304049 12.672269a64.755296 64.755296 0 0 1 1.520672 7.430558c7.499679 19.261849 0.829458 43.166357-15.771215 55.96535l-65.665396 37.68272-19.31945 0.241925c-22.844645 0.334087-33.546953-11.451123-36.726541-15.840336-7.614882-7.326876-27.072575-22.464477-38.535218-22.464478h-0.253446c-9.734607 0.138243-25.344539 11.704569-35.712759 19.365532-2.453812 1.808678-4.769381 3.536715-6.762383 4.919145-10.264538 10.299099-22.545119 15.828816-35.528435 15.990099-7.269274 0.103682-12.591628 0.172804-17.706617-4.377693l-67.554715-34.457052-0.403209-0.207364-0.368648-0.264966c-17.119084-12.487945-24.388358-36.634378-16.94628-56.241835a69.985487 69.985487 0 0 0 2.983744-19.584416 50.689077 50.689077 0 0 0-50.689077-50.689077h-4.953706c-17.073003 0.241925-33.800398-15.679053-38.178091-36.20813l-0.126723-0.587532v-0.506891c-0.080642-0.840978-0.737296-3.824721-1.313308-6.451337-2.188847-9.953492-6.267013-28.466525-6.508938-47.014119-0.149763-11.623927 1.267227-45.66625 6.739343-55.804066 4.193369-20.114347 20.287151-35.885563 37.106709-36.115968h3.571276a50.689077 50.689077 0 0 0 50.689077-50.689077v-1.463071c0-3.456073-1.267227-8.559542-2.304049-12.672269a64.432729 64.432729 0 0 1-1.520672-7.419038c-7.499679-19.261849-0.817937-43.154837 15.771215-55.942308 0 0 48.857358-28.21308 66.81742-33.086144 4.481375-1.278747 18.294149-1.359389 18.294148-1.359388z m197.16899 80.722355l-38.327854-20.022186-15.05696 15.448649-0.46081 0.322567c-23.604982 16.197464-42.014333 22.925287-63.54567 23.201773h-0.93314c-19.319451 0-41.714806-7.637922-63.188543-21.554378l-0.48385-0.311047-0.403209-0.403209a93.313983 93.313983 0 0 0-7.142552-6.14029 59.386862 59.386862 0 0 1-8.628663-7.891368l-33.523912 20.183469a93.982157 93.982157 0 0 1 6.002047 29.65311c0.702735 55.228054-38.385456 103.07163-91.655067 113.186405-0.230405 2.37317-0.587532 5.034347-0.967701 7.925929a160.834138 160.834138 0 0 0-1.88932 22.890726 131.492074 131.492074 0 0 0 1.946921 17.026922c0.714255 4.608098 1.451551 9.216196 1.820199 13.686051 55.101331 8.824508 93.682631 53.718902 94.466007 110.790194a94.10888 94.10888 0 0 1-5.18411 29.63007l38.350895 20.033706c3.974484-3.928403 9.769168-9.216196 15.805776-12.407304 22.844645-15.621452 41.265517-22.706403 59.697909-22.959848s37.118229 6.405256 60.538886 21.577419l0.48385 0.311046 0.403209 0.403209a78.971278 78.971278 0 0 0 11.151597 8.789947c1.255707 0.864018 2.430772 1.670435 3.513674 2.476852l38.10897-21.17421a93.866955 93.866955 0 0 1-5.955966-29.480306c-0.714255-55.228054 38.385456-103.07163 91.666588-113.197926 0.230405-2.304049 0.576012-4.988266 0.95618-7.845286a161.652075 161.652075 0 0 0 1.88932-22.948328v-0.93314l0.288006-0.887059c1.969962-6.163331 1.082903-14.308144 0.218885-22.187991-0.253445-2.304049-0.506891-4.608098-0.679695-6.785424-55.112851-8.824508-93.682631-53.718902-94.466007-110.778674a93.809353 93.809353 0 0 1 5.18411-29.63007zM775.450718 230.291134a100.940385 100.940385 0 0 1-92.300201-26.047274c-25.621024-24.710925-36.864783-60.930575-30.240643-96.770056 6.992789-41.472881 40.689505-76.033616 81.955022-84.155388A102.368895 102.368895 0 0 1 857.348139 142.59903c-6.831505 44.157098-39.721804 79.386007-81.897421 87.692104z m20.425394-102.288254a40.228695 40.228695 0 0 0-12.499465-28.420444 40.977511 40.977511 0 0 0-27.648588-11.75065h-1.059862c-21.66958 0.264966-40.44758 19.584416-40.171094 41.230957a41.542003 41.542003 0 0 0 40.735586 40.159573h0.49537a41.576564 41.576564 0 0 0 40.182614-41.288557z"  horiz-adv-x="1032" />

    
    <glyph glyph-name="wenhao2" unicode="&#58925;" d="M512 650.778947c-48.505263 0-86.231579-13.473684-115.873684-40.421052s-45.810526-61.978947-53.894737-113.178948l67.368421-5.389473c5.389474 37.726316 16.168421 61.978947 37.726316 80.842105 18.863158 16.168421 40.421053 26.947368 70.063158 26.947368s53.894737-10.778947 72.757894-29.642105c18.863158-18.863158 29.642105-40.421053 29.642106-67.368421 0-13.473684-2.694737-26.947368-10.778948-40.421053-5.389474-13.473684-18.863158-26.947368-43.115789-45.810526s-37.726316-32.336842-45.810526-45.810526c-13.473684-13.473684-18.863158-26.947368-26.947369-43.11579-5.389474-18.863158-10.778947-40.421053-10.778947-67.368421v-18.863158h61.978947c0 26.947368 2.694737 43.115789 5.389474 56.589474 2.694737 10.778947 5.389474 24.252632 13.473684 29.642105 5.389474 10.778947 18.863158 24.252632 40.421053 40.421053 29.642105 32.336842 48.505263 56.589474 59.28421 75.452632 10.778947 18.863158 16.168421 40.421053 16.168421 61.978947 0 40.421053-16.168421 72.757895-45.810526 102.4-29.642105 26.947368-72.757895 43.115789-121.263158 43.115789zM474.273684 187.284211h72.757895V114.526316h-72.757895zM512 896C229.052632 896 0 666.947368 0 384s229.052632-512 512-512 512 229.052632 512 512S794.947368 896 512 896z m0-972.8c-253.305263 0-458.105263 204.8-458.105263 458.105263s204.8 458.105263 458.105263 458.105263 458.105263-204.8 458.105263-458.105263c0-250.610526-204.8-458.105263-458.105263-458.105263z"  horiz-adv-x="1026" />

    
    <glyph glyph-name="shangxia" unicode="&#58948;" d="M516.336 894.5c13.785 0 25.713-5.042 35.78-15.12l356.2-356.564c10.068-10.084 15.105-22.024 15.105-35.817s-5.037-25.732-15.106-35.817c-10.073-10.078-22-15.121-35.78-15.121H160.143c-13.779 0-25.705 5.043-35.779 15.121-10.068 10.085-15.105 22.024-15.105 35.817 0 13.8 5.037 25.733 15.105 35.817l356.2 356.564C490.631 889.46 502.557 894.5 516.335 894.5z m-1.11-1022.495c-13.784 0-25.71 5.042-35.778 15.12l-356.2 356.564c-10.069 10.084-15.106 22.023-15.106 35.816 0 13.794 5.037 25.733 15.106 35.817 10.073 10.078 22 15.122 35.779 15.122H871.42c13.778 0 25.704-5.044 35.779-15.122 10.068-10.084 15.104-22.023 15.104-35.817 0-13.799-5.036-25.732-15.104-35.816l-356.2-356.563c-10.067-10.079-21.993-15.121-35.772-15.121z m0 0"  horiz-adv-x="1024" />

    
    <glyph glyph-name="tuichu1" unicode="&#58990;" d="M511.99983546-11.5078125C293.91032649-11.5078125 116.4921875 165.94328572999996 116.4921875 383.99983546S293.91032649 779.50748266 511.99983546 779.50748266a394.58479614 394.58479614 0 0 0 265.9459342-102.76607029 32.95897073 32.95897073 0 1 0-44.3298157-48.77927628A328.93052707 328.93052707 0 0 1 511.99983546 713.58954197C330.26407133 713.58954197 182.41012896 565.7355996 182.41012896 383.99983546c0-181.76872338 147.85394237-329.58970651 329.5897065-329.58970651a328.66685545 328.66685545 0 0 1 220.95693907 85.03414417 32.92601149 32.92601149 0 1 0 44.23093875-48.84519478A394.38704301 394.38704301 0 0 0 511.99983546-11.5078125M800.88521275 352.75473141H380.16395255c-18.12743394 0-32.95897073 14.83153679-32.95897073 32.95896995s14.83153679 32.95897073 32.95897073 32.95897073h420.7212602l-71.85055555 73.89401233a33.05784769 33.05784769 0 0 0 0 46.60398485 33.05784769 33.05784769 0 0 0 46.63694332 0l122.21186307-125.73847337a32.89305302 32.89305302 0 0 0 9.55810135-25.44432538c0.06591772-1.51611277 0.06591772-3.03222553 0-4.54833754a32.89305302 32.89305302 0 0 0-9.55810135-25.44432537L775.67160052 232.25673422a33.05784769 33.05784769 0 0 0-46.60398486 1e-8 33.05784769 33.05784769 0 0 0 0 46.60398485l71.85055632 73.89401233z"  horiz-adv-x="1024" />

    
    <glyph glyph-name="wenhao" unicode="&#58891;" d="M512-112.941176C237.537882-112.941176 15.058824 109.537882 15.058824 384S237.537882 880.941176 512 880.941176 1008.941176 658.462118 1008.941176 384 786.462118-112.941176 512-112.941176z m0 90.352941c224.557176 0 406.588235 182.031059 406.588235 406.588235S736.557176 790.588235 512 790.588235 105.411765 608.557176 105.411765 384 287.442824-22.588235 512-22.588235z m-2.951529 692.705882c54.181647 0 97.581176-14.817882 130.770823-45.477647 32.376471-29.756235 48.730353-70.716235 48.730353-121.494588 0-38.189176-11.053176-71.981176-33.249882-101.25553-8.884706-10.661647-31.412706-32.165647-65.144471-62.042353-15.540706-13.432471-26.352941-26.172235-33.701647-39.333647-8.613647-14.637176-12.769882-30.72-12.769882-49.513411v-33.069177h-92.762353v33.069177c0 28.009412 5.150118 52.946824 15.510588 74.480941 12.047059 25.901176 39.152941 56.982588 82.070588 95.141647 16.504471 16.474353 21.895529 22.106353 25.539765 26.925176 13.673412 17.106824 20.178824 34.213647 20.178823 52.464941 0 26.985412-7.649882 47.616-22.437647 62.403765-14.546824 15.179294-36.141176 22.768941-65.867294 22.768941-34.846118 0-59.090824-10.661647-75.083294-32.617411-14.998588-19.064471-22.618353-45.628235-22.618353-80.745412v-15.058824H316.235294v15.058824c0 59.030588 16.474353 106.375529 50.115765 141.673412 34.334118 37.797647 82.281412 56.621176 142.697412 56.621176z m-11.745883-476.882823c17.769412 0 33.129412-5.722353 45.116236-17.709177 11.595294-11.625412 17.709176-26.503529 17.709176-43.550118 0-18.130824-6.324706-33.189647-18.974118-44.784941a63.006118 63.006118 0 0 0-43.851294-17.257412c-16.805647 0-31.442824 5.903059-44.333176 17.709177-12.047059 12.047059-17.709176 26.744471-17.709177 44.333176 0 17.829647 5.812706 32.647529 17.709177 43.550118 12.047059 12.047059 26.744471 17.709176 44.333176 17.709177z"  horiz-adv-x="1024" />

    


  </font>
</defs>
</svg>
